<?xml version="1.0" encoding="UTF-8" standalone="no"?>
<svg width="32px" height="32px" viewBox="0 0 32 32" version="1.1" xmlns="http://www.w3.org/2000/svg" xmlns:xlink="http://www.w3.org/1999/xlink">
    <!-- Generator: Sketch 43.2 (39069) - http://www.bohemiancoding.com/sketch -->
    <title>wedo-add-button</title>
    <desc>Created with Sketch.</desc>
    <defs>
        <path d="M2,1.00752069 C2,0.451082376 2.45303631,0 2.99703014,0 L9.00296986,0 C9.5536144,0 10,0.442541372 10,1.00752069 L10,3.99267578 L2,3.99267578 L2,1.00752069 Z" id="path-1"></path>
        <path d="M14,1.00752069 C14,0.451082376 14.4530363,0 14.9970301,0 L21.0029699,0 C21.5536144,0 22,0.442541372 22,1.00752069 L22,3.99267578 L14,3.99267578 L14,1.00752069 Z" id="path-2"></path>
        <rect id="path-3" x="0" y="4" width="24" height="16" rx="1"></rect>
    </defs>
    <g id="Page-1" stroke="none" stroke-width="1" fill="none" fill-rule="evenodd">
        <g id="wedo-add-button">
            <g id="lego" transform="translate(4.000000, 6.000000)">
                <g id="Rectangle-18">
                    <use fill="#FFFFFF" fill-rule="evenodd" xlink:href="#path-1"></use>
                    <path stroke-opacity="0.1" stroke="#000000" stroke-width="1" d="M1.5,1.00752069 L1.5,3.99267578 L1.5,4.49267578 L2,4.49267578 L10,4.49267578 L10.5,4.49267578 L10.5,3.99267578 L10.5,1.00752069 C10.5,0.169861711 9.83320858,-0.5 9.00296986,-0.5 L2.99703014,-0.5 C2.17393784,-0.5 1.5,0.17790535 1.5,1.00752069 Z"></path>
                </g>
                <g id="Rectangle-18-Copy">
                    <use fill="#FFFFFF" fill-rule="evenodd" xlink:href="#path-2"></use>
                    <path stroke-opacity="0.1" stroke="#000000" stroke-width="1" d="M13.5,1.00752069 L13.5,3.99267578 L13.5,4.49267578 L14,4.49267578 L22,4.49267578 L22.5,4.49267578 L22.5,3.99267578 L22.5,1.00752069 C22.5,0.169861711 21.8332086,-0.5 21.0029699,-0.5 L14.9970301,-0.5 C14.1739378,-0.5 13.5,0.17790535 13.5,1.00752069 Z"></path>
                </g>
                <g id="Rectangle-17">
                    <use fill="#FFFFFF" fill-rule="evenodd" xlink:href="#path-3"></use>
                    <rect stroke-opacity="0.1" stroke="#000000" stroke-width="1" x="-0.5" y="3.5" width="25" height="17" rx="1"></rect>
                </g>
                <path d="M0,17.3333333 L24,17.3333333 L24,19.0070318 C24,19.555433 23.5525308,20 22.9993054,20 L1.00069463,20 C0.448026248,20 0,19.5596542 0,19.0070318 L0,17.3333333 Z" id="Rectangle-17" fill-opacity="0.1" fill="#000000"></path>
            </g>
        </g>
    </g>
</svg>